<svg viewBox="0 0 400 180" xmlns="http://www.w3.org/2000/svg" role="img" aria-label="">
  <defs>
    <linearGradient id="postersBg" x1="0" y1="0" x2="1" y2="1">
      <stop offset="0%" stop-color="#e2604c"/>
      <stop offset="100%" stop-color="#a83322"/>
    </linearGradient>
  </defs>
  <rect width="400" height="180" fill="url(#postersBg)"/>
  <circle cx="360" cy="30" r="65" fill="#ffffff" opacity="0.07"/>
  <circle cx="20" cy="150" r="70" fill="#ffffff" opacity="0.05"/>

  <!-- easel legs -->
  <path d="M170 168 L150 100 M230 168 L250 100 M150 130 L250 130" stroke="#7a2216" stroke-width="4" stroke-linecap="round"/>

  <!-- framed canvas -->
  <g>
    <rect x="130" y="30" width="140" height="100" rx="4" fill="#ffffff"/>
    <rect x="140" y="40" width="120" height="80" rx="2" fill="#fdf3ea"/>
    <circle cx="165" cy="65" r="12" fill="#ffd166"/>
    <path d="M140 118 L175 85 L200 105 L225 78 L260 118 Z" fill="#e2604c" opacity="0.85"/>
  </g>

  <!-- rolled poster -->
  <g transform="translate(60 70)">
    <rect x="0" y="0" width="16" height="90" rx="8" fill="#ffffff" opacity="0.9"/>
    <ellipse cx="8" cy="0" rx="8" ry="5" fill="#ffe9c4"/>
  </g>

  <path d="M310 100 L313 108 L321 111 L313 114 L310 122 L307 114 L299 111 L307 108 Z" fill="#ffd166"/>
  <circle cx="300" cy="60" r="4" fill="#ffffff" opacity="0.8"/>
</svg>
